<svg width="48" height="48" viewBox="0 0 48 48" fill="none" xmlns="http://www.w3.org/2000/svg">
  <defs>
    <linearGradient id="pineappleGradient" x1="0%" y1="0%" x2="0%" y2="100%">
      <stop offset="0%" style="stop-color:#FFD54F;stop-opacity:1" />
      <stop offset="100%" style="stop-color:#FFA726;stop-opacity:1" />
    </linearGradient>
    <linearGradient id="pineappleLeafGradient" x1="0%" y1="0%" x2="100%" y2="100%">
      <stop offset="0%" style="stop-color:#66BB6A;stop-opacity:1" />
      <stop offset="100%" style="stop-color:#43A047;stop-opacity:1" />
    </linearGradient>
  </defs>
  
  <!-- Shadow -->
  <ellipse cx="24" cy="42" rx="8" ry="2.5" fill="black" opacity="0.15"/>
  
  <!-- Pineapple body -->
  <path d="M24 14C20 14 17 17 17 21C17 25 18 29 19 32C20 35 22 38 24 38C26 38 28 35 29 32C30 29 31 25 31 21C31 17 28 14 24 14Z" 
        fill="url(#pineappleGradient)" 
        stroke="#F57C00" 
        stroke-width="0.8"/>
  
  <!-- Diamond pattern -->
  <path d="M20 18L22 20L20 22L18 20Z" fill="#F57C00" opacity="0.3"/>
  <path d="M24 18L26 20L24 22L22 20Z" fill="#F57C00" opacity="0.3"/>
  <path d="M28 18L30 20L28 22L26 20Z" fill="#F57C00" opacity="0.3"/>
  <path d="M20 24L22 26L20 28L18 26Z" fill="#F57C00" opacity="0.3"/>
  <path d="M24 24L26 26L24 28L22 26Z" fill="#F57C00" opacity="0.3"/>
  <path d="M28 24L30 26L28 28L26 26Z" fill="#F57C00" opacity="0.3"/>
  <path d="M20 30L22 32L20 34L18 32Z" fill="#F57C00" opacity="0.3"/>
  <path d="M24 30L26 32L24 34L22 32Z" fill="#F57C00" opacity="0.3"/>
  <path d="M28 30L30 32L28 34L26 32Z" fill="#F57C00" opacity="0.3"/>
  
  <!-- Highlight -->
  <ellipse cx="20" cy="20" rx="2" ry="3" fill="white" opacity="0.3"/>
  
  <!-- Leaves crown -->
  <path d="M24 14C24 14 22 10 22 8C22 6 23 4 24 4C25 4 26 6 26 8C26 10 24 14 24 14Z" 
        fill="url(#pineappleLeafGradient)" 
        stroke="#2E7D32" 
        stroke-width="0.5"/>
  <path d="M24 14C24 14 20 11 18 10C16 9 15 8 16 7C17 6 19 7 21 9C23 11 24 14 24 14Z" 
        fill="url(#pineappleLeafGradient)" 
        stroke="#2E7D32" 
        stroke-width="0.5"/>
  <path d="M24 14C24 14 28 11 30 10C32 9 33 8 32 7C31 6 29 7 27 9C25 11 24 14 24 14Z" 
        fill="url(#pineappleLeafGradient)" 
        stroke="#2E7D32" 
        stroke-width="0.5"/>
</svg>
